<svg width="42" height="37" viewBox="0 0 42 37" fill="none" xmlns="http://www.w3.org/2000/svg">
<path d="M15.5 21.6248C18.1379 21.6248 20.2811 19.4654 20.2811 16.8121C20.2811 14.1589 18.1379 12 15.5 12C14.8336 12.0105 14.1789 12.1465 13.5861 12.3975C12.9933 12.6485 12.4781 13.008 12.0801 13.4483C11.1777 14.4117 10.6979 15.5984 10.7189 16.815C10.7189 19.4659 12.8621 21.6248 15.5 21.6248ZM15.5 12.8752C17.5517 12.8752 19.2189 14.6417 19.2189 16.8126C19.2189 18.9836 17.5506 20.75 15.5 20.75C13.4494 20.75 11.7811 18.9831 11.7805 16.8126C11.7799 14.6421 13.4483 12.8752 15.5 12.8752ZM19.2189 20.75C19.078 20.75 18.9428 20.7961 18.8431 20.8782C18.7435 20.9602 18.6875 21.0716 18.6875 21.1876C18.6875 21.3037 18.7435 21.415 18.8431 21.4971C18.9428 21.5791 19.078 21.6252 19.2189 21.6252C20.2049 21.6261 21.1502 21.9491 21.8474 22.5232C22.5446 23.0974 22.9367 23.8759 22.9378 24.6879C22.9375 24.8038 22.8814 24.9149 22.7819 24.9969C22.6823 25.0788 22.5474 25.125 22.4067 25.1252H8.59447C8.4537 25.125 8.31882 25.0788 8.21928 24.9969C8.11975 24.9149 8.06367 24.8038 8.06336 24.6879C8.0646 23.8759 8.45682 23.0975 9.15398 22.5234C9.85114 21.9493 10.7963 21.6263 11.7823 21.6252C11.9231 21.6252 12.0582 21.5792 12.1578 21.4971C12.2574 21.4151 12.3134 21.3039 12.3134 21.1879C12.3134 21.0719 12.2574 20.9606 12.1578 20.8786C12.0582 20.7966 11.9231 20.7505 11.7823 20.7505C10.5146 20.7514 9.29911 21.1664 8.40255 21.9045C7.50598 22.6425 7.00155 23.6434 7 24.6874C7.00047 25.0354 7.16854 25.369 7.46735 25.6151C7.76616 25.8612 8.17131 25.9996 8.59389 26H22.4067C22.8292 25.9995 23.2342 25.861 23.5329 25.6149C23.8316 25.3689 23.9995 25.0353 24 24.6874C23.9984 23.6435 23.4943 22.6428 22.598 21.9046C21.7017 21.1665 20.4864 20.7513 19.2189 20.75Z" fill="#3D537C"/>
<path d="M25.3672 18.0494H40.642M40.642 18.0494L34.0957 23.7555M40.642 18.0494L34.0957 12.3433" stroke="#3D537C" stroke-width="2" stroke-linecap="round" stroke-linejoin="round"/>
<path d="M31.5497 6.70613V4.80409C31.5497 2.70315 29.5958 1 27.1854 1H5.36424C2.95393 1 1 2.70315 1 4.80409V31.4327C1 33.5337 2.95393 35.2368 5.36424 35.2368H27.1854C29.5958 35.2368 31.5497 33.5337 31.5497 31.4327V29.5307" stroke="#3D537C" stroke-width="2" stroke-linecap="round" stroke-linejoin="round"/>
</svg>
