<svg width="29" height="24" viewBox="0 0 29 24" fill="none" xmlns="http://www.w3.org/2000/svg">
<path d="M14.5 16.4996C19 16.4996 22.656 12.7978 22.656 8.24938C22.656 3.70096 19 0 14.5 0C13.3631 0.0179928 12.2463 0.251088 11.2351 0.681432C10.2239 1.11178 9.34507 1.72795 8.66602 2.48276C7.12663 4.13439 6.30819 6.16867 6.34399 8.25434C6.34399 12.7986 10 16.4996 14.5 16.4996ZM14.5 1.50041C18 1.50041 20.844 4.52855 20.844 8.25021C20.844 11.9719 17.998 15 14.5 15C11.002 15 8.15603 11.971 8.15503 8.25021C8.15403 4.52938 11 1.50041 14.5 1.50041ZM20.844 15C20.6036 15 20.373 15.079 20.203 15.2197C20.033 15.3604 19.9375 15.5512 19.9375 15.7502C19.9375 15.9492 20.033 16.14 20.203 16.2807C20.373 16.4214 20.6036 16.5004 20.844 16.5004C22.526 16.5019 24.1386 17.0556 25.3279 18.0399C26.5172 19.0241 27.1861 20.3587 27.188 21.7506C27.1875 21.9493 27.0918 22.1398 26.922 22.2803C26.7522 22.4208 26.5221 22.5 26.282 22.5004H2.71997C2.47985 22.5 2.24975 22.4208 2.07996 22.2803C1.91016 22.1398 1.81449 21.9493 1.81396 21.7506C1.81608 20.3587 2.48517 19.0243 3.67444 18.0401C4.86371 17.0559 6.47608 16.5022 8.15796 16.5004C8.39824 16.5004 8.62868 16.4214 8.79858 16.2808C8.96849 16.1402 9.06396 15.9495 9.06396 15.7506C9.06396 15.5518 8.96849 15.3611 8.79858 15.2204C8.62868 15.0798 8.39824 15.0008 8.15796 15.0008C5.99541 15.0024 3.92201 15.7138 2.39258 16.9791C0.863144 18.2444 0.00264777 19.9601 0 21.7498C0.000794067 22.3464 0.287502 22.9184 0.797241 23.3402C1.30698 23.7621 1.99811 23.9993 2.71899 24H26.282C27.0027 23.9991 27.6936 23.7617 28.2031 23.3399C28.7126 22.9181 28.9992 22.3462 29 21.7498C28.9974 19.9603 28.1372 18.2447 26.6083 16.9794C25.0793 15.714 23.0063 15.0022 20.844 15Z" fill="#3D537C"/>
</svg>
